<svg xmlns="http://www.w3.org/2000/svg" width="256" height="256" viewBox="0 0 256 256" role="img" aria-label="HF Model Downloader logo">
  <defs>
    <linearGradient id="bg" x1="0" y1="0" x2="1" y2="1">
      <stop offset="0%" stop-color="#fff8ec"/>
      <stop offset="100%" stop-color="#f0e0c2"/>
    </linearGradient>
    <linearGradient id="card" x1="0" y1="0" x2="1" y2="1">
      <stop offset="0%" stop-color="#6d5538"/>
      <stop offset="100%" stop-color="#3c332a"/>
    </linearGradient>
    <linearGradient id="accent" x1="0" y1="0" x2="1" y2="1">
      <stop offset="0%" stop-color="#ffb347"/>
      <stop offset="100%" stop-color="#ff8756"/>
    </linearGradient>
    <filter id="shadow" x="-20%" y="-20%" width="140%" height="140%">
      <feDropShadow dx="0" dy="12" stdDeviation="14" flood-color="#7d6240" flood-opacity="0.18"/>
    </filter>
  </defs>
  <rect width="256" height="256" rx="56" fill="url(#bg)"/>
  <rect x="38" y="42" width="180" height="172" rx="38" fill="#fffaf1" stroke="#e5d8c0"/>
  <g filter="url(#shadow)">
    <rect x="62" y="68" width="132" height="94" rx="24" fill="url(#card)"/>
    <rect x="76" y="86" width="60" height="10" rx="5" fill="#fff5e6" opacity="0.95"/>
    <rect x="76" y="104" width="84" height="10" rx="5" fill="#fff5e6" opacity="0.72"/>
    <rect x="76" y="122" width="52" height="10" rx="5" fill="#fff5e6" opacity="0.5"/>
    <circle cx="172" cy="100" r="16" fill="#fff0d6" opacity="0.18"/>
  </g>
  <g filter="url(#shadow)">
    <path d="M128 118c11 0 20 9 20 20v14h16l-36 40-36-40h16v-14c0-11 9-20 20-20Z" fill="url(#accent)"/>
  </g>
  <rect x="58" y="184" width="140" height="20" rx="10" fill="#efe0c3"/>
  <rect x="74" y="190" width="56" height="8" rx="4" fill="#c69a5c"/>
  <rect x="138" y="190" width="42" height="8" rx="4" fill="#dbc29d"/>
</svg>
